<?xml version="1.0" encoding="utf-8"?>
<!-- Generator: Adobe Illustrator 26.3.1, SVG Export Plug-In . SVG Version: 6.00 Build 0)  -->
<svg version="1.1" id="Layer_1" xmlns="http://www.w3.org/2000/svg" xmlns:xlink="http://www.w3.org/1999/xlink" x="0px" y="0px"
	 viewBox="0 0 600.8 151.71" style="enable-background:new 0 0 600.8 151.71;" xml:space="preserve">
<style type="text/css">
	.st0{fill:#1D1760;}
	.st1{fill:#DC1351;}
	.st2{fill:#49C7ED;}
	.st3{fill:#74045F;}
	.st4{fill:#00A766;}
	.st5{fill:#FDB714;}
</style>
<g>
	<g>
		<path class="st0" d="M213.4,106.38V3.86h30.31v12.82c3.87-8.95,14.24-15.05,26.65-15.05c13.83,0,23.19,5.49,27.87,16.27
			c5.7-10.78,17.09-16.27,34.17-16.27c23.39,0,36.41,15.87,36.41,42.51v62.25h-30.31V47.8c0-12-5.49-19.33-15.26-19.33
			c-9.97,0-17.09,8.34-17.09,20.34v57.57h-30.31V47.8c0-12-5.49-19.33-15.26-19.33c-9.76,0-16.88,8.34-16.88,20.34v57.57H213.4z"/>
	</g>
	<path class="st0" d="M381.76,122.86c3.25,1.02,7.32,1.63,12.41,1.63c3.86,0,6.71-0.81,8.74-2.24c2.03-1.42,3.46-3.46,4.27-6.51
		l1.62-4.47L365.08,3.87H396l27.86,71.19l25.22-71.19H480l-45.56,118.78c-3.46,8.75-7.32,15.05-11.8,18.91
		c-6.71,5.9-15.86,8.95-27.46,8.95c-4.68,0-9.15-0.41-13.42-1.42V122.86z"/>
	<g>
		<path class="st0" d="M486.31,145.64V3.86h30.31v13.43c3.05-8.95,15.05-15.26,30.51-15.26c14.44,0,26.65,5.08,36.21,15.46
			c9.76,10.17,14.65,22.78,14.65,37.63c0,14.85-4.88,27.46-14.65,37.84c-9.56,10.17-21.77,15.26-36.21,15.26
			c-15.46,0-27.46-6.31-30.51-15.26v52.69H486.31z M560.15,73.43c5.09-5.08,7.53-11.19,7.53-18.31c0-7.12-2.44-13.22-7.53-18.11
			c-5.08-5.08-11.19-7.53-18.51-7.53c-7.53,0-13.83,2.44-19.12,7.53c-5.08,4.88-7.73,10.99-7.73,18.11c0,7.12,2.64,13.22,7.73,18.31
			c5.29,4.88,11.6,7.32,19.12,7.32C548.97,80.75,555.07,78.31,560.15,73.43z"/>
	</g>
	<path class="st1" d="M79.62,11.6c26.17,0,47.39,21.22,47.39,47.39v47.39H32.24V58.99C32.24,32.82,53.45,11.6,79.62,11.6"/>
	<path class="st2" d="M138.47,50.67c-4.12,0-8.12,0.53-11.94,1.52c0.32,2.22,0.49,4.5,0.49,6.81v47.39h58.84v-8.32
		C185.85,71.89,164.64,50.67,138.47,50.67"/>
	<path class="st3" d="M126.53,52.19c-20.39,5.29-35.45,23.82-35.45,45.87v8.32h35.94V58.99C127.02,56.68,126.85,54.41,126.53,52.19"
		/>
	<path class="st4" d="M32.1,47.43c-16.28,0-29.48,13.2-29.48,29.48s13.2,29.48,29.48,29.48c0.05,0,0.09,0,0.14,0V58.99
		c0-3.97,0.49-7.83,1.41-11.52C33.13,47.44,32.62,47.43,32.1,47.43"/>
	<path class="st5" d="M33.65,47.47c-0.92,3.69-1.41,7.55-1.41,11.52v47.39c16.22-0.08,29.34-13.24,29.34-29.48
		C61.58,61.15,49.21,48.28,33.65,47.47"/>
	<path class="st0" d="M120.22,23.91c0,11.07,8.97,20.04,20.04,20.04c11.07,0,20.04-8.97,20.04-20.04s-8.97-20.04-20.04-20.04
		C129.19,3.87,120.22,12.84,120.22,23.91"/>
</g>
</svg>
